<?xml version="1.0" encoding="utf-8"?>
<!-- Generator: Adobe Illustrator 16.0.0, SVG Export Plug-In . SVG Version: 6.00 Build 0)  -->
<!DOCTYPE svg PUBLIC "-//W3C//DTD SVG 1.1//EN" "http://www.w3.org/Graphics/SVG/1.1/DTD/svg11.dtd">
<svg version="1.1" id="Layer_1" xmlns="http://www.w3.org/2000/svg" xmlns:xlink="http://www.w3.org/1999/xlink" x="0px" y="0px"
	 width="324px" height="324px" viewBox="0 0 324 324" enable-background="new 0 0 324 324" xml:space="preserve">
<g>
	<path fill="#FFFFFF" d="M256.748,1.892c-1.086,0.192-1.94,1.034-2.148,2.117c-2.364,12.313-17.961,31.178-43.929,32.563
		c-19.201,1.021-30.07,7.727-38.805,13.115c-2.972,1.834-5.78,3.566-8.552,4.835c-8.985,4.109-22.66,1.196-27.156,0.238
		l-1.561-0.308c-7.975-1.121-15.551,2.02-19.078,3.8c-6.077-7.367-16.629-15.48-30.142-23.075c0,0-0.53-0.301-0.532-0.303
		C70.879,26.435,69.748,11.03,69.748,6.269c0-0.799,0.032-1.299,0.041-1.415c0.004-0.064,0.007-0.128,0.007-0.191
		c0-1.011-0.575-1.943-1.493-2.39c-0.974-0.477-2.141-0.313-2.945,0.412c-0.318,0.288-5.509,5.153-5.509,16.094
		c0,4.98,1.075,11.22,4.176,18.86c0.107,0.265,0.161,0.535,0.161,0.834c0,1.097-0.734,2.565-2.292,5.428
		c-3.64,6.679-9.679,17.823-9.854,42.006c-9.76,10.138-14.553,22.13-18.392,31.827c-2.426,6.127-4.521,11.418-7.102,14
		c-5.528,5.526-15.816,15.816-21.233,30.567C2.862,168.975,0,180.84,0,192.317c0,10.049,2.992,15.417,5.633,20.152
		c0,0,0.116,0.21,0.155,0.278c0.354,0.743,2.028,3.918,5.295,5.56c4.64,16.323,15.296,32.949,31.791,49.439
		c0.845,0.847,2.152,1.021,3.191,0.429c0.478-0.271,0.806-0.685,1.034-1.152c7.943,10.997,18.712,23.131,31.452,30.267l14.361,8.043
		c1.057,0.591,2.381,0.394,3.219-0.481c0.148-0.155,0.233-0.346,0.337-0.526c8.702,6.434,19.315,12.778,29.962,15.367l9.805,2.381
		c1.037,0.252,2.126-0.143,2.762-1.001c0.347-0.468,0.523-1.025,0.523-1.585c0-0.464-0.121-0.931-0.366-1.347l-5.119-8.698
		c-0.076-0.129-0.125-0.259-0.2-0.387c0.93-0.329,1.633-1.125,1.765-2.131l1.951-14.865c1.705-12.978,4.03-17.213,4.939-18.427
		c0.735,0.373,2.101,1.29,4.05,3.239c3.942,3.939,4.769,9.553,4.771,13.595v0.284c0,3.046-0.372,4.802-2.28,5.358
		c-0.932,0.271-1.639,1.028-1.849,1.975c-0.043,0.19-0.064,0.385-0.064,0.577c0,0.755,0.322,1.484,0.903,1.995
		c5.911,5.203,10.863,8.063,14.979,9.774c-0.249,0.409-0.411,0.874-0.411,1.369c0,0.124,0.008,0.248,0.026,0.373
		c0.167,1.193,1.12,2.125,2.318,2.268l16.038,1.907c0.091,0.013,0.186,0.018,0.277,0.021c7.778,0.104,10.899-0.168,14.777-1.02
		c2.183,1.075,5.067,0.616,6.074,0.392c0.104-0.021,0.208-0.053,0.308-0.088c11.971-4.233,15.882-11.285,17.055-16.456
		c0.302-1.337,0.456-2.744,0.456-4.187c0-0.958-0.131-1.889-0.267-2.816c0.628-1.474,1.021-3.048,1.021-4.748
		c0-1.935-0.479-4.007-1.287-6.232c1.523-3.858,2.143-7.274,2.143-10.198c0-8.764-5.166-13.319-5.463-13.572l-2.395-2.049
		c-0.081-0.07-0.183-0.1-0.271-0.158c0.304-0.673,0.607-1.291,0.901-1.886c1.179-2.396,2.515-5.11,2.515-8.929l-0.181-2.469
		c0.005,0.066,0.039,0.35,0.039,0.416c0.005-1.956,3.608-12.763,5.754-14.905c0.432-0.434,1.236-1.104,2.494-1.993
		c0.32,0.878,0.713,1.733,1.271,2.51c-0.138-0.192-0.23-0.352-0.312-0.573c0.583,1.564,1.667,4.477,1.667,6.778
		c0,0.467-0.045,0.868-0.132,1.192l-0.341,1.25c-0.259,0.951,0.029,1.968,0.751,2.641c0,0,0.963,0.898,0.976,0.91
		c1.602,1.476,4.045,1.721,6.879,0.692c2.207-0.802,5.603-2.846,8.126-7.825c0,0,11.095-0.036,12.777-0.036
		c1.682,0,2.836-0.745,2.836-2.697v-3.875c10.791,5.553,27.239,16.087,33.519,20.27l9.202,6.117c1.143,0.76,2.677,0.523,3.54-0.545
		c0.395-0.489,0.589-1.081,0.589-1.667c0-0.697-0.272-1.39-0.807-1.908l-7.927-7.696c-0.176-0.172-17.403-16.724-39.91-26.797
		c0.094-0.508,0.138-1.093,0.199-1.657c0.349-0.324,0.68-0.658,1.006-0.996c0.279,0.008,0.536,0.016,0.538,0.016
		c8.092,0.219,40.753,10.876,46.863,12.971l7.79,2.632c1.271,0.43,2.663-0.153,3.244-1.363c0.179-0.37,0.264-0.764,0.264-1.152
		c0-0.878-0.436-1.731-1.218-2.234l-6.905-4.453c-0.163-0.106-16.227-10.322-45.069-16.078c0.309-1.328,0.503-2.674,0.503-4.033
		c0-1.24-0.139-2.474-0.396-3.693c9.784-0.25,33.23,2.47,46.898,4.318l9.639,1.324c1.349,0.183,2.619-0.679,2.943-2.001
		c0.325-1.321-0.4-2.674-1.682-3.134c0,0-9.156-3.293-9.161-3.295c-0.225-0.08-22.193-7.79-49.763-7.505
		c-0.119-0.769-0.223-1.427-0.223-1.427c-0.189-0.894-0.489-2.097-0.897-3.427c16.818-5.405,43.401-8.913,58.211-10.561
		c1.308-0.144,2.313-1.226,2.362-2.542c0.001-0.032,0.002-0.065,0.002-0.099c0-1.274-0.908-2.375-2.17-2.612
		c-18.846-3.515-48.487,1.587-63.948,5.867c-1.237-1.229-2.554-2.245-4.013-2.808c-2.243-0.862-3.699-2.583-4.553-3.894
		c0.361-1.718,0.592-3.371,0.592-4.88c0-4.013-1.212-6.729-2.018-8.537c0,0-0.241-0.566-0.327-0.767
		c-0.1-3.461-1.293-9.932-2.063-13.778c0.003-0.271,0.032-2.537,0.032-2.537c0-5.508-0.792-13.344-7.64-17.795
		c-2.736-1.78-8.996-7.667-13.524-12.169c-0.013-0.013-0.052-0.046-0.083-0.073c-0.019-0.023-0.439-0.648-0.439-2.25
		c0-2.701,1.201-8.169,7.562-18.173c8.714-13.704,10.467-22.39,11.746-28.732c0.642-3.176,1.155-5.688,2.358-8
		c11.883-17.104,17.089-27.308,17.089-34.647c0-2.594-0.649-4.831-1.881-6.891C258.925,2.199,257.833,1.699,256.748,1.892
		 M246.345,148.467c0,0.001,0.016,0.086,0.016,0.094c0,0.013-0.008,0.009-0.008,0.098
		C246.353,148.602,246.346,148.525,246.345,148.467 M261.045,183.906c-0.021,0-0.042,0-0.063,0
		C261.003,183.906,261.025,183.906,261.045,183.906 M219.569,291.344c0.031,0.169,0.049,0.339,0.049,0.51h-0.001
		C219.59,291.688,219.601,291.509,219.569,291.344"/>
	<path d="M260.925,203.925c0.891-2.097,1.257-4.152,1.257-6.064c0-2.312-0.538-4.379-1.257-6.083l0.176-0.027
		c9.407-1.525,50.192,4.047,50.602,4.101l9.639,1.325l-9.156-3.294c-0.225-0.079-22.831-8.079-51.132-7.318
		c-0.108-1.103-0.288-2.285-0.56-3.563c-0.29-1.367-0.821-3.465-1.684-5.651c16.993-6.031,46.281-9.859,61.304-11.527
		c-18.442-3.439-48.572,1.668-64.238,6.215c-1.141-1.449-2.519-2.645-4.189-3.287c-3.506-1.349-5.52-4.258-6.407-5.853
		c0.522-2.067,0.741-3.859,0.741-5.402c0-3.45-1.019-5.729-1.786-7.448c-0.222-0.495-0.525-1.176-0.541-1.388
		c0-3.399-1.58-11.49-2.085-14.002c0.005-0.383,0.01-0.894,0.01-0.894c0.012-0.576,0.025-1.207,0.025-1.888
		c0-4.767-0.6-11.778-6.43-15.566c-3.268-2.125-10.412-8.996-13.95-12.513c0,0-5.753-4.267,6.671-23.808
		c12.953-20.371,9.97-28.948,14.035-36.632c16.441-23.636,18.929-32.683,15.239-38.848c-2.527,13.161-18.559,33.233-46.398,34.717
		c-25.095,1.335-35.237,12.609-46.392,17.713c-11.152,5.103-28.182,0.428-30.193,0.146c-9.844-1.383-19.38,4.553-19.38,4.553
		C105.541,48.99,84.64,37.858,83.471,37.15C65.502,26.29,67.138,4.658,67.138,4.658s-9.975,9.002-0.652,31.981
		c2.822,6.951-11.805,12.351-11.805,50.314c-16.549,16.551-18.845,39.246-26.255,46.658c-5.522,5.522-15.418,15.442-20.618,29.605
		c-2.731,7.435-5.15,19.028-5.15,29.1c0,9.583,2.891,14.541,5.478,19.188c0,0,1.713,3.78,5.115,4.837
		c5.084,19.178,18.241,36.268,31.501,49.526c0,0-0.946-3.662-0.946-8.353c8.147,12.697,20.707,28.867,36.045,37.456l14.359,8.043
		v-0.006l0.004,0.004c0,0-2.36-3.826-4.69-7.597c10.09,8.616,23.866,18.37,37.534,21.694l9.805,2.381v-0.004v0.002l-5.118-8.698
		c-3.481-5.916-4.639-11.276-4.639-15.786c0-0.446,0.018-0.877,0.04-1.306c0.632,1.398,5.818,12.883,5.818,12.883v-0.005
		l0.002,0.002l1.95-14.865c2.052-15.636,5.065-19.598,6.291-20.587c0.259-0.205,0.438-0.284,0.513-0.31
		c0.87-0.295,3.146,0.62,6.7,4.176c4.616,4.613,5.548,11.027,5.548,15.446c0,0.009,0.002,0.018,0.002,0.025
		c0,2.223,0.139,6.932-4.194,8.196c9.106,8.015,15.759,10.163,20.076,11.202c-1.966,0.827-4.604,1.938-4.604,1.938l16.038,1.908
		c8.55,0.115,11.207-0.241,15.261-1.204c1.165,1.49,4.977,0.641,4.977,0.641c10.831-3.829,14.323-10.02,15.348-14.536
		c0.271-1.198,0.39-2.422,0.39-3.601c0-1.118-0.11-2.188-0.299-3.156c0.761-1.438,1.054-2.945,1.054-4.408
		c0-2.408-0.77-4.688-1.438-6.308c6.119-14.278-1.878-21.367-2.24-21.676l-2.395-2.049l-1.016,2.988
		c-0.015,0.038-0.901,2.586-2.714,5.438c-0.043-0.284-0.071-0.582-0.071-0.911c0-0.533,0.057-1.133,0.175-1.822
		c0.962-5.572,2.421-8.542,3.595-10.921c1.107-2.252,2.246-4.561,2.246-7.765c0-0.658-0.047-1.354-0.153-2.091l0.013,0.117
		c-0.002-0.024-0.002-0.053-0.002-0.079c0-2.557,3.779-14.032,6.531-16.783c1.429-1.433,3.989-3.147,6.446-4.634
		c-0.03,0.232-0.065,0.463-0.075,0.7c-0.004,0.109-0.008,0.218-0.008,0.326c0,1.625,0.521,3.172,1.44,4.451
		c0.003,0.01,0.015,0.036,0.015,0.036c0.64,1.718,1.838,4.932,1.838,7.72c0,0.66-0.065,1.3-0.225,1.889l-0.341,1.251l0.963,0.898
		c1.126,1.037,3.098,0.539,4.173,0.147c2.662-0.965,7.202-4.007,8.992-13.528c4.036-0.69,6.624-2.521,8.267-4.442l0.661,0.194
		c10.114,2.941,41.399,23.689,41.715,23.899l9.202,6.116l-7.927-7.696c-0.18-0.174-18.091-17.413-41.124-27.166l-0.016-0.007
		c0.316-1.118,0.68-2.756,0.759-4.422c0.938-0.806,1.756-1.624,2.476-2.449l0.368,0.01l1.292,0.037
		c9.523,0.257,47.264,12.978,47.643,13.109l7.79,2.632l-6.911-4.455C307.792,220.094,290.971,209.424,260.925,203.925"/>
	<path fill="#FFFFFF" d="M239.108,224.993c-0.359-0.096-1.797-0.511-3.608-1.337c-1.305-0.594-2.802-1.408-4.235-2.472
		c-0.132,0.697-0.247,2.198,0.901,3.244c0,0,2.659,6.902,1.754,10.123c0,0,3.45-0.169,5.428-9.494L239.108,224.993z"/>
	<path fill="#FFFFFF" d="M197.374,229.352c-0.066,0.002-0.199,0.006-0.386,0.006h-0.003c-1.221,0.009-4.777-0.091-8.074-1.36
		c0,0-0.732,2.226,0.81,3.629c0,0,2.337,6.063,1.882,9.475c-0.03,0.229-0.074,0.444-0.129,0.645c0,0,4.137-0.195,5.952-12.396
		C197.425,229.35,197.407,229.352,197.374,229.352"/>
	<path fill="#FFFFFF" d="M178.643,277.852c0,0,0.351-2.818,2.641-3.542c0,0,6.181-6.154,6.843-10.154c0,0,4.179,2.388-0.006,16.695
		c0,0-2.178-1.243-5.176-2.144C182.944,278.707,181.277,278.125,178.643,277.852"/>
	<path fill="#B7B9BC" d="M178.643,277.852c0,0,0.351-2.818,2.641-3.542c0,0,6.181-6.154,6.843-10.154c0,0-0.021,7.094-3.775,10.847
		c-0.124,0.126-1.301,1.598-1.345,3.723c-0.021-0.006-0.042-0.011-0.062-0.018C182.944,278.707,181.497,278.189,178.643,277.852"/>
	<path fill="#FFFFFF" d="M196.656,281.748c2.774,0.227,1.683-0.908,3.092-0.636c1.409,0.273,4.5,3.047,6.181,1.363
		c1.684-1.683,1.387-4.204,0.638-3.864c-0.751,0.342-1.615,2.717-5.68,0.094c-1.675-1.081-2.318-0.728-2.909-0.136
		c-0.591,0.591-1.818-0.365-1.818-0.365s0.451,0.044-2.094-0.366c-2.545-0.408-3,4.048-3,4.048c0,0.682,1.227,0.635,3.365,1.226
		C196.566,283.704,193.884,281.521,196.656,281.748"/>
	<path fill="#FFFFFF" d="M209.179,276.716v-0.002c2.122,2.477,2.452,4.916,2.452,4.916c6.107-12.384,1.61-17.475,1.61-17.475
		c-0.661,4-6.844,10.154-6.844,10.154S208.055,275.374,209.179,276.716"/>
	<path fill="#B7B9BC" d="M209.179,276.716v-0.002c0.51-0.876,1.228-1.593,1.228-1.593c3.509-4.574,2.834-10.966,2.834-10.966
		c-0.661,4-6.844,10.154-6.844,10.154S208.229,275.574,209.179,276.716"/>
	<path fill="#B7B9BC" d="M234.588,223.684c0.306,0,0.609-0.012,0.912-0.027c-1.305-0.594-2.802-1.408-4.235-2.472
		c-0.132,0.697-0.247,2.198,0.901,3.244c0,0,2.659,6.902,1.754,10.123C236.749,227.831,234.588,223.684,234.588,223.684"/>
	<path fill="#B7B9BC" d="M192.142,230.879c2.027,0,4.039-0.375,5.135-0.621c0.05-0.298,0.1-0.597,0.147-0.908
		c0,0-0.018,0.002-0.051,0.002c-0.066,0.002-0.199,0.006-0.386,0.006h-0.003c-1.221,0.009-4.777-0.091-8.074-1.36
		c0,0-0.732,2.226,0.81,3.629c0,0,2.337,6.063,1.882,9.475c-0.03,0.229-0.074,0.444-0.129,0.645
		C194.302,235.028,192.142,230.879,192.142,230.879"/>
	<path fill="#005295" d="M253.848,217.647l-0.588,0.999c9.656,2.828,34.888,19.788,34.888,19.788S263.417,220.756,253.848,217.647"
		/>
	<path fill="#005295" d="M259.806,205.768l-0.312,1.119c10.057,0.272,38.78,10.227,38.78,10.227S269.853,206.333,259.806,205.768"/>
	<path fill="#005295" d="M260.876,188.588l-0.096,1.157c9.931-1.604,40.004,2.824,40.004,2.824S270.854,187.271,260.876,188.588"/>
	<path fill="#005295" d="M257.844,174.219l0.244,1.135c15.437-5.971,46.955-9.348,46.955-9.348S279.528,166.508,257.844,174.219"/>
	<path fill="#FFFFFF" d="M231.906,216.072c0.001-0.002,0.002-0.002,0.003-0.004c3.282-4.973,1.8-11.785,1.8-11.785
		c2.61-2.034,3.298-3.782,3.298-3.782V200.5c0,0,6.476-2.251,10.728-11.265c2.791-5.918-0.23-7.682-0.558-7.85
		c0.951-3.662,2.486-6.17,4.237-7.875c1.811,1.524,3.291,4.617,4.254,7.849c0,0,1.567,9.961-5.516,12.564
		c0,0,4.95,0.989,6.016-2.091c0,0,3.3,4.82,0.717,10.665c-0.11,0.167-4.293,6.51-11.006,6.51c0,0,1.87,1.963,5.126,1.074
		c0.155,2.517-0.148,10.791-10.796,10.791C240.211,220.873,234.494,219.157,231.906,216.072"/>
	<path fill="#FFFFFF" d="M231.906,216.072c0.001-0.002,0.002-0.002,0.003-0.004c3.282-4.973,1.8-11.785,1.8-11.785
		c2.61-2.034,3.298-3.782,3.298-3.782V200.5c0,0,6.476-2.251,10.728-11.265c2.791-5.918-0.23-7.682-0.558-7.85
		c0.951-3.662,2.486-6.17,4.237-7.875c1.811,1.524,3.291,4.617,4.254,7.849c0,0,1.567,9.961-5.516,12.564
		c0,0,4.95,0.989,6.016-2.091c0,0,3.3,4.82,0.717,10.665c-0.11,0.167-4.293,6.51-11.006,6.51c0,0,1.87,1.963,5.126,1.074
		c0.155,2.517-0.148,10.791-10.796,10.791C240.211,220.873,234.494,219.157,231.906,216.072"/>
	<path fill="#B7B9BC" d="M246.629,191.329c-0.011,0.165-0.68,9.165-7.912,13.298c0,0,0.175,8.167-2.083,10.424
		c0,0,0.266,3.684,3.596,5.817h-0.015c0,0-5.747-1.711-8.308-4.796c0,0,3.111-4.176,1.803-11.789c0,0,2.244-1.601,3.298-3.782
		C237.007,200.501,242.415,198.53,246.629,191.329"/>
	<path fill="#005295" d="M218.018,189.383c0,0,0.455-4.651,5.659-4.651c5.198,0,9.578,3.191,15.873,0.271
		c6.296-2.919,5.773,0.916,5.773,0.916s-3.948,7.844-8.236,9.851c0,0,0.136-3.056-1.551-4.744c0,0,0.731,2.099-1.552,5.932
		c-2.281,3.832-0.501,4.515-2.691,5.061l-2.189-3.01c0,0-1.134-1.115,0-4.333c1.481-4.204-4.607-3.649-4.973-3.649
		c-0.366,0-0.437-0.385-2.098,1.276C221.074,193.259,218.609,189.977,218.018,189.383"/>
	<path fill="#002F65" d="M234.224,192.853c-2.941,0.762-7.312-4.034-9.726-5.365c-3.028-1.669-5.363,0.105-5.715,2.762
		c0.989,1.13,2.536,2.767,3.248,2.053c1.661-1.661,1.732-1.276,2.098-1.276c0.365,0,6.41-0.57,4.973,3.649
		c-1.134,3.324,0,4.333,0,4.333l1.546,2.139C229.918,198.047,233.908,195.779,234.224,192.853"/>
	<path fill="#6082B6" d="M234.688,188.811c0,0-1.092,1.722-3.843,0.434c-1.517-0.708-4.215-4.254-8.138-3.744
		c4.022-0.009,6.252,5.349,10.123,5.492C233.797,191.026,235.264,190.74,234.688,188.811"/>
	<path fill="#6082B6" d="M235.939,188.837c0.363,1.311,1.649,1.453,2.472,1.387c2.295-0.19,3.411-3.55,5.625-5.054
		C240.442,185.52,240.216,191.165,235.939,188.837"/>
	<path fill="#AD8505" d="M197.716,240.859c-0.367-0.582-0.759-1.15-1.171-1.706c-0.162,0.264-0.325,0.517-0.491,0.754
		C196.65,240.231,197.216,240.555,197.716,240.859"/>
	<path fill="#DEB408" d="M205.403,267.001c-1.466-3.337-4.061-3.976-4.061-14.731c0-4.448-1.849-9.157-4.795-13.12
		c0,0.002-0.001,0.002-0.002,0.004c-0.162,0.264-0.325,0.517-0.491,0.754c-2.958,4.216-6.515,4.11-6.463,3.92
		c0.575-2.12,0.239-4.591-0.318-6.767c-0.459-1.784-1.065-3.37-1.447-4.397c-0.38-0.458-0.651-0.951-0.843-1.447
		c-0.597-0.27-1.199-0.517-1.812-0.722c-16.458-5.497-24.235-0.238-29.275,6.995c0,0,9.579-1.002,12.45,10.312
		c2.223,8.756,0.364,19.562,14.685,21.99c3.404-4.034,4.205-8.874,4.205-8.874s4.433,2.271,4.728,9.84
		C204.135,271.664,206.643,269.829,205.403,267.001"/>
	<path fill="#F3DEA9" d="M205.403,267.001c-1.466-3.337-4.061-3.976-4.061-14.731c0-3.81-1.359-7.812-3.599-11.371l-0.025-0.037
		c-0.501-0.307-1.065-0.631-1.664-0.954l0,0c-0.482,0.687-0.98,1.248-1.475,1.723c1.436,3.532,2.563,7.503,2.909,11.7
		c-0.527,4.607-16.153,1.048-15.506,3.503c1.063,4.038,14.823-1.136,15.945,1.843c0.004,0.008,0.008,0.018,0.013,0.028
		c0.71,2.893,2.332,4.491,2.332,6.674c0,1.179-3.541,2.254-8.773,2.015c0.242,0.985,0.415,2.096,0.465,3.365v0.001
		C204.135,271.664,206.644,269.831,205.403,267.001 M183.367,269.366c0.736-0.931,1.334-1.892,1.828-2.818
		c-2.072-0.451-4.255-1.096-6.486-1.982C179.851,266.278,181.439,267.877,183.367,269.366"/>
	<path fill="#AD8505" d="M176.778,259.471c-1.929-18.047-5.925-23.086-5.925-23.086c4.13-0.937,7.95-1.069,11.398-0.734
		c1.571,2.351,3.276,6.15,3.84,11.969c0,0,1.662-5.879-0.302-11.445c1.225,0.246,2.383,0.549,3.483,0.887
		c-0.459-1.784-1.065-3.37-1.447-4.397c-0.38-0.461-0.655-0.955-0.847-1.456c-0.596-0.271-1.198-0.509-1.808-0.713
		c-16.46-5.498-24.237-0.239-29.276,6.995c0,0,9.578-1.002,12.451,10.312c2.221,8.754,0.375,19.555,14.69,21.982
		c0.118-0.138,0.222-0.278,0.333-0.417C179.643,266.492,177.177,263.21,176.778,259.471"/>
	<path fill="#DEB408" d="M65.044,106.915c-3.287,9.147-1.987,15.961-1.987,15.961c2.673-9.976,8.018-17.281,8.018-17.281
		c-4.99-12.294-6.233-27.438-6.233-27.438c-1.785-25.121,15.32-31.891,15.32-31.891c-1.529-2.416-3.762-3.407-5.809-3.757
		c-0.184,0.021-0.363,0.043-0.506,0.096c-3.912,1.413-13.978,10.51-12.736,46.672C62.351,97.414,65.044,106.915,65.044,106.915"/>
	<path fill="#AD8505" d="M89.672,83.543c-4.99,6.804-2.682,14.859-2.682,14.859c5.936-8.981,21.354-10.782,21.354-10.782
		c-7.773-34.577-27.555-37.246-27.555-37.246c-11.994,6.153-12.192,23.795-12.192,23.795C71.621,59.1,80.544,54.074,80.544,54.074
		c11.657,1.112,17.299,21.353,17.299,21.353c-1.906-0.979-6.213,0.038-6.213,0.038c4.915,3.422,4.497,12.576,4.497,12.576
		C94.826,85.96,89.672,83.543,89.672,83.543"/>
	<path fill="#AD8505" d="M212.771,75.496c0,0,4.198,2.859,8.28,2.579c0.003-0.012,0.006-0.021,0.006-0.021l-2.992-1.954
		c9.816-3.791,9.25-10.566,9.25-10.566l-6.624-1.469l7.07-3.221c7.767-5.362,7.743-17.714,7.743-17.714
		c-3.856,4.833-22.775,13.136-28.458,17.5c-5.692,4.358-7.659,15.391-7.659,15.391c-1.548-0.529-1.971-3.885-1.971-3.885
		c-2.412,6.252-0.311,12.119-0.311,12.119c0.313,0.733,0.693,1.357,1.118,1.897c0.014-1.043,0.247-2.823,1.384-5.01l6.421,3.239
		c0,0-4.158-12.908,6.5-20.899c10.66-7.982,10.652-3.963,14.827-10.009c0,0,0.664,5.884-5.463,9.472c0,0-4.332,2.635-5.395,5.732
		c0,0,5.935-1.829,8.241-1.74C224.739,66.938,217.995,74.385,212.771,75.496"/>
	<path fill="#F0D792" d="M149.205,66.994c0,0-14.979-13.653-30.222-0.387l6.294,3.603C125.276,70.21,132.031,62.189,149.205,66.994"
		/>
	<path fill="#F0D792" d="M186.524,56.521c7.457-7.46,21.041-13.226,21.041-13.226c-21.253,1.154-32.976,12.807-32.976,12.807
		S179.068,63.979,186.524,56.521"/>
	<path fill="#FFFFFF" d="M96.026,232.142c0.987-9.424,4.034-18.818,10.023-27.686c-3.732,0.623-7.199,1.3-10.364,2.001
		c-1.646,6.788-2.621,15.497-0.121,23.606L96.026,232.142z"/>
	<path fill="#FFFFFF" d="M236.415,144.107c0,0-0.54-0.267-1.354-0.527c0.714,6.982-3.418,10.674-3.418,10.674
		c1.893-5.538,0.164-9.917-0.381-11.079c-1.753,0.29-3.383,1.469-3.82,4.663c-1.046,7.676,3.381,8.636,3.381,8.636
		S238.622,155.23,236.415,144.107"/>
	<path fill="#002F65" d="M236.742,145.447c-0.007-0.052-0.016-0.103-0.026-0.154c-0.004-0.019-0.008-0.035-0.014-0.057
		c-0.076-0.369-0.171-0.745-0.288-1.129c0,0-0.54-0.296-1.363-0.586c0.743,7.019-3.41,10.732-3.41,10.732
		c1.973-5.774,0.01-10.292-0.443-11.211c-0.943,0.143-1.88,0.524-2.676,1.326c-0.275,0.986-0.435,2.084-0.435,3.247
		c0,4.17,1.98,7.549,4.421,7.549c0.746,0,1.6-0.418,2.216-0.978c0.862-0.964,1.443-2.133,1.863-3.651
		c0.221-0.897,0.344-1.884,0.344-2.92C236.932,146.862,236.864,146.134,236.742,145.447"/>
	<path fill="#6082B6" d="M232.076,152.717c-1.076-0.89-1.84-3.124-1.84-5.744c0-1.377,0.217-2.634,0.569-3.656
		c-0.161,0.027-0.322,0.055-0.479,0.098c-0.573,1.082-0.927,2.565-0.927,4.202c0,2.835,1.06,5.203,2.483,5.832
		C231.953,153.202,232.019,152.956,232.076,152.717"/>
	<path fill="#6082B6" d="M233.105,153.131c-0.146,0-0.289-0.03-0.43-0.075c-0.147,0.204-0.282,0.37-0.409,0.521
		c0.12,0.024,0.244,0.041,0.368,0.041c1.345,0,2.497-1.521,2.986-3.685C235.132,151.839,234.189,153.131,233.105,153.131"/>
	<path fill="#8FA4CC" d="M230.756,146.209c-0.014,0.467,0.216,0.853,0.515,0.864c0.299,0.009,0.554-0.364,0.567-0.83
		c0.016-0.471-0.216-0.854-0.514-0.865C231.025,145.369,230.771,145.739,230.756,146.209"/>
	<path fill="#8FA4CC" d="M230.286,148.157c-0.014,0.468,0.216,0.854,0.515,0.865c0.299,0.008,0.552-0.366,0.567-0.832
		c0.016-0.469-0.216-0.854-0.515-0.865C230.555,147.318,230.301,147.688,230.286,148.157"/>
	<path fill="#FFFFFF" d="M230.335,205.662c0,0-3.123-4.535-4.207-5.297c-2.049-1.44-1.438-3.793-2.71-3.984
		c-1.272-0.194-5.901-2.229-8.059-4.389c-0.375-0.373-0.642-0.787-0.835-1.214l-0.001,0.002c0,0-6.733-10.093-21.63-14.932
		c-1.534-0.395-3.168-0.77-4.917-1.119c-9.096-1.819-21.628,2.707-22.91,3.184l0.321,0.706c0,0-12.534,4.612-9.677,21.467
		c2.095,12.347,13.735,15.837,13.735,15.837s-5.752-1.088-10.968-4.979l-0.577,0.151l-1.171,0.31
		c-24.908,6.962-45.214,18.413-55.835,25.159c0.593,13.053,4.851,33.575,22.02,56.347v0.004c0.656-9.232,5.324-15.021,5.324-15.021
		c0,7.849,2.442,13.255,2.442,13.255c2.526-19.241,6.917-25.585,12.516-24.556c-1.051-4.013-4.474-13.97-13.097-17.035
		c-8.616-3.006-14.066,3.916-14.066,3.916c4.185-10.812,13.952-7.325,13.952-7.325c-2.093-4.187-5.058-5.406-5.058-5.406
		c20.752,4.185,31.5,39.046,31.5,39.046l-0.002-0.002c3.104,8.204,1.291,16.596,1.291,16.596c1.482-1.483,6.102,0.523,6.102,0.523
		c-3.138,3.14-5.754,2.788-5.754,2.788c13.253,10.118,28.777,6.455,28.777,6.455c-2.093,2.093-5.058,3.313-5.058,3.313
		c13.254,1.567,20.405-4.361,20.405-4.361c0,2.095-2.093,4.013-2.093,4.013c12.663-4.477,13.32-12.108,12.77-15.863
		c-2.579-0.289-7.805-0.089-17.897,2.671c0,0,8.999-4.894,17.338-4.894c0.959-0.96,1.359-2.09,1.436-3.255
		c-3.405-0.555-11.212-1.255-22.216,1.177c-14.697,3.252-19.609,5.89-24.984-1.833c-5.554-7.982-14.011-29.052-16.881-38.032l0,0
		c-1.771-5.132-7.554-13.573-7.554-13.573c2.505,1.147,5.047,3.776,7.181,6.491c1.996-6.847,9.304-21.297,28.836-20.969
		c12.951,0.22,19.306,12.363,44.641-2.485h0.002c0.683-0.442,1.371-0.87,2.039-1.274
		C232.768,211.592,230.335,205.662,230.335,205.662 M147.862,235.641c0,0-0.916-23.154,15.949-17.103
		C163.812,218.538,151.132,219.812,147.862,235.641 M194.074,206.057l1.526,2.871c0,0-9.023-3.803-15.781-2.167
		c0,0,2.064,0.56,3.538,1.553c-4.857,0.453-9.056,1.223-14.244,4.849c2.414-3.742,6.852-5.638,6.852-5.638l-3.325-0.974
		c8.979-4.732,18.204-1.971,18.204-1.971s-1.305-1.366-3.391-2.177c5.083-0.728,15.799,1.035,21.855,10.308
		C209.307,212.711,203.339,207.074,194.074,206.057 M200.449,197.434l2.08,2.918c-10.068-4.779-17.141-5.163-23.793-4.669
		c1.303,0.51,2.403,1.233,3.266,1.924c-6.24-0.31-11.213,1.312-16.164,4.588c3.849-4.546,8.358-5.999,8.358-5.999l-2.749-0.771
		c12.166-6.263,25.441,0.008,25.441,0.008l-1.547-2.126c9.63,1.109,16.524,10.047,16.524,10.047
		C207.619,200.27,200.449,197.434,200.449,197.434 M203.52,188.842l1.909,2.962c-15.443-7.979-25.662-5.766-25.662-5.766
		c1.541,0.357,3.061,1.847,3.061,1.847c-9.728-1.1-20.061,2.933-20.061,2.933c6.393-8.058,21.023-7.417,21.023-7.417l-1.465-1.468
		c11.777,0.254,18.008,5.073,18.008,5.073l-2.522-2.78c11.25,2.089,15.922,13.024,15.922,13.024
		C208.146,191.298,203.52,188.842,203.52,188.842"/>
	<path fill="#FFFFFF" d="M124.204,311.826c-3.968-5.255-11.766-16.379-18.214-30.435l0.002,0.012
		c-10.244-20.511-14.22-45.814-14.22-45.814c-1.854,11.323-2.045,20.34-2.045,20.34c-5.325-21.399-1.479-38.171,2.92-48.77
		c-13.532,3.236-20.994,6.654-21.142,6.724l-6.791,3.184c-2.126,42.924,15.239,63.395,19.681,67.899
		c0.329,0.316,0.661,0.634,1.008,0.964l0.013,0.012v0.001C94.305,294.36,109.232,306.826,124.204,311.826"/>
	<path fill="#FFFFFF" d="M96.264,169.049c-5.679,3.055-11.352,7.361-16.858,13.269c0,0,0.696-6.628,9.417-15.35
		c0,0-31.547,10.937-34.881,51.974c0,0-13.258-24.418,0-50.929c0,0-27.593,19.979-16.534,69.743
		c0.018-0.051,0.034-0.103,0.049-0.153c0,0,18.316,38.983,44.479,53.632c-11.706-15.478-16.998-31.043-19.021-44.532
		c-1.87,8.946,3.063,23.079,3.063,23.079c-9.392-10.965-19.49-32.179-19.49-44.083c4.185,13.211,12.163,20.93,12.163,20.93
		c0.822-16.69,4.579-35.843,6.932-40.018c-0.42,3.623-0.701,7.105-0.867,10.451l5.694-4.875
		c0.769-0.657,19.339-15.935,79.872-15.769c-0.053-0.63-0.089-1.272-0.089-1.941c0-1.272,0.095-2.461,0.258-3.588
		c-35.972-10.349-79.229-3.587-79.667-3.518l-7.035,1.133l6.438-3.058c0.976-0.465,24.467-11.168,81.544,0.546
		c0.656-1.654,1.479-3.091,2.378-4.335c-27.75-10.231-46.87-13.354-53.506-14.203C98.184,168.213,96.666,168.869,96.264,169.049"/>
	<path fill="#FFFFFF" d="M101.775,222.31c-0.238,1.108-0.886,4.642-0.951,10.004c9.526-7.216,26.731-17.742,53.397-25.524
		c-1.162-1.505-2.154-3.242-2.863-5.246c-16.304-0.507-30.472,0.645-42.178,2.416C106.359,208.986,103.556,215.209,101.775,222.31"
		/>
	<path fill="#B7B9BC" d="M53.942,218.938c0,0-13.258-24.417,0-50.926c0,0-27.593,19.979-16.534,69.738
		c0.018-0.048,0.034-0.099,0.049-0.148h0.002c0,0,0,0,0.001-0.004c0,0,18.309,38.974,44.464,53.628
		c-53.515-44.987-43.937-88.424-43.937-88.424c1.483,12.006,7.149,16.456,7.149,16.456c-10.116-24.954,2.024-39.93,2.024-39.93
		S40.281,201.184,53.942,218.938"/>
	<path fill="#B7B9BC" d="M157.977,177.614c0.251-0.2,0.501-0.392,0.746-0.57C139,163.18,119.693,163.449,107.86,165.658
		C118.038,166.657,135.593,169.512,157.977,177.614"/>
	<path fill="#B7B9BC" d="M63.749,188.504l1.986-0.941c3.331-4.128,7.812-8.63,13.667-12.549c0,0-2.68,3.213-4.209,8.707
		c1.989-0.549,4.59-1.15,7.847-1.684c7.894-7.086,18.062-11.807,29.62-12.513c-5.555-1.146-9.634-1.76-12.055-2.069
		c-2.847,0.893-4.451,1.644-4.451,1.644l0.069-0.08c-5.655,3.067-11.308,7.39-16.817,13.297c0,0,0.696-6.628,9.417-15.348
		c0,0-23.047,7.506-31.139,33.674c0,0,2.169-5.589,7.482-12.365L63.749,188.504z"/>
	<path fill="#B7B9BC" d="M74.506,186.868c-0.268,1.688-0.405,3.525-0.335,5.5c1.371-2.096,2.901-4.085,4.56-5.971
		C77.091,186.565,75.672,186.727,74.506,186.868"/>
	<path fill="#B7B9BC" d="M150.281,196.418c-0.053-0.63-0.089-1.272-0.089-1.941c0-1.272,0.1-2.459,0.261-3.586
		c-1.769-0.509-3.555-0.978-5.352-1.407c-0.032,2.204,0.174,4.568,0.716,6.951C147.279,196.42,148.767,196.414,150.281,196.418"/>
	<path fill="#B7B9BC" d="M157.9,211.095l-1.171,0.31c-0.124,0.034-0.245,0.07-0.365,0.104c3.303,2.085,7.483,3.684,12.744,4.514
		c-0.549-0.188-1.08-0.393-1.599-0.597c-2.127-0.641-5.686-1.991-9.027-4.486L157.9,211.095z"/>
	<path fill="#B7B9BC" d="M154.228,206.786c-1.16-1.507-2.167-3.235-2.877-5.243c-1.289-0.041-2.577-0.074-3.842-0.096
		c0.986,2.152,2.326,4.229,4.089,6.123C152.463,207.307,153.341,207.046,154.228,206.786"/>
	<path fill="#B7B9BC" d="M151.747,185.994c0.658-1.648,1.47-3.093,2.367-4.333c-2.308-0.849-4.556-1.652-6.744-2.409
		c-0.729,1.207-1.407,3.153-1.831,5.531C147.563,185.158,149.632,185.561,151.747,185.994"/>
	<path fill="#B7B9BC" d="M84.327,284.896c8.715,8.396,24.269,21.717,39.869,26.933c-38.779-25.888-44.242-54.688-44.242-54.688
		c-0.288,8.028,1.759,14.936,1.759,14.936C66.44,249.21,65.582,206.61,65.582,206.61C59.83,256.453,79.415,279.88,84.327,284.896"/>
	<path fill="#B7B9BC" d="M130.1,249.557c-8.616-3.006-14.066,3.916-14.066,3.916s6.805-1.567,12.201,2.21
		c-14.165,12.276-8.498,30.217-5.056,37.645c-0.006-2.774,0.556-9.065,5.021-15.485c0.174,4.037,0.843,8.646,2.48,13.297
		c0,0.002,0.001,0.004,0.001,0.004c1.603-12.206,3.956-19.221,6.894-22.458c1.692-1.864,3.577-2.468,5.622-2.093
		C142.146,262.579,138.723,252.622,130.1,249.557 M130.395,276.727c0,0-1.215-5.396,1.348-12.139
		c-4.588,3.505-7.15,7.821-7.946,14.611c0,0-3.657-12.455,9.43-19.874c0,0,1.078,1.215,3.89,4.578
		C134.167,266.206,130.663,271.467,130.395,276.727"/>
	<path fill="#B7B9BC" d="M202.188,305.1c2.003-2.002,2.156-3.669,2.156-3.669c-3.053,4.198-15.744,6.106-15.744,6.106
		c2.767-1.525,3.912-3.721,3.912-3.721c-22.043,2.575-28.532-3.627-28.532-3.627c2.767-0.763,3.625-3.339,3.625-3.339
		c-1.24-2.578-7.633-3.625-7.633-3.625c1.624-21.663-16.579-39.124-16.579-39.124c8.408,11.099,12.81,24.973,13.025,25.66
		c3.117,8.212,1.298,16.613,1.298,16.613c1.483-1.48,6.105,0.527,6.105,0.527c-0.197,0.196-0.391,0.377-0.583,0.55
		c-2.84,2.519-5.115,2.251-5.168,2.243c13.254,10.112,28.774,6.449,28.774,6.449c-0.261,0.262-0.537,0.512-0.819,0.745
		c-1.955,1.625-4.206,2.559-4.237,2.568C195.011,311.026,202.158,305.126,202.188,305.1"/>
	<path fill="#B7B9BC" d="M112.986,180.782c9.571-4.94,17.822-2.717,17.822-2.717c-14.315-6.428-23.177,1.168-24.56,2.483
		C108.388,180.584,110.636,180.66,112.986,180.782"/>
	<path fill="#B7B9BC" d="M81.458,206.289c5.457-14.358,13.196-19.424,18.8-21.127c-2.707,0.037-5.294,0.12-7.734,0.232
		c-7.624,5.22-11.649,13.921-13.769,22.037C79.584,207.06,80.486,206.68,81.458,206.289"/>
	<path fill="#B7B9BC" d="M77.847,211.431c-1.693,8.646-1.397,15.74-1.397,15.74c0.873-6.387,2.078-11.814,3.499-16.449
		C79.196,210.969,78.501,211.203,77.847,211.431"/>
	<path fill="#FFFFFF" d="M160.521,154.37c0-1.601,0.401-3.106,1.109-4.425c-4.524,1.919-6.953,4.956-6.953,4.956
		c3.093,3.99,6.509,6.045,9.663,7.021C162.022,160.213,160.521,157.468,160.521,154.37"/>
	<path fill="#AAB9D8" d="M154.682,154.894c0.685,0.886,1.389,1.677,2.1,2.38c0.354-0.411,1.657-1.841,3.829-3.242
		c0.062-1.457,0.438-2.83,1.089-4.042l0.063-0.114C157.151,151.791,154.682,154.894,154.682,154.894"/>
	<path fill="#002F65" d="M174.576,149.204c1.256,6.488-4.224,9.884-4.224,9.884c2.104-4.978,0.412-8.539-1.394-10.663
		c-2.83,0.037-5.277,0.656-7.297,1.511c-0.71,1.321-1.115,2.831-1.115,4.435c0,3.1,1.503,5.847,3.821,7.554
		c6.048,1.87,11.134-0.22,11.134-0.22C178.191,160.239,178.593,151.227,174.576,149.204"/>
	<path fill="#005295" d="M177.2,153.031l0.07,1.252c0,3.446-2.641,6.238-5.898,6.238c-3.259,0-5.902-2.792-5.902-6.238
		c0-2.581,1.495-4.771,3.607-5.718c-0.036-0.046-0.074-0.086-0.11-0.129c-2.832,0.035-5.286,0.644-7.306,1.499
		c-0.71,1.321-1.115,2.831-1.115,4.435c0,3.1,1.503,5.847,3.821,7.554c6.048,1.87,11.134-0.22,11.134-0.22
		C177.292,160.729,178.069,156.407,177.2,153.031"/>
	<path fill="#6082B6" d="M174.578,149.214c0.033,0.176,0.062,0.35,0.087,0.521c1.273,1.165,2.079,2.836,2.079,4.699
		c0,3.528-2.859,6.391-6.389,6.391c-3.527,0-6.388-2.862-6.388-6.391c0-2.754,1.748-5.093,4.192-5.989
		c-1.086,0.058-2.112,0.2-3.073,0.408c-1.483,1.4-2.413,3.38-2.413,5.581c0,4.244,3.439,7.687,7.683,7.687
		c3.243,0,6.011-2.014,7.138-4.854C177.808,154.158,176.986,150.432,174.578,149.214"/>
	<path fill="#7591C0" d="M168.151,154.642c-0.616,0.646-1.47,0.835-1.907,0.416c-0.435-0.416-0.291-1.277,0.326-1.923
		c0.617-0.647,1.472-0.834,1.906-0.417C168.913,153.133,168.767,153.994,168.151,154.642"/>
	<path fill="#6082B6" d="M169.755,151.729c-0.387,0.404-0.92,0.521-1.195,0.259c-0.272-0.259-0.183-0.797,0.205-1.204
		c0.385-0.404,0.922-0.521,1.195-0.262C170.232,150.784,170.143,151.324,169.755,151.729"/>
	<path fill="#FFFFFF" d="M164.825,152.899c0.659,0.272,1.63-0.03,2.365-0.801c0.873-0.918,1.081-2.138,0.462-2.729
		c-0.619-0.589-1.829-0.323-2.703,0.593c-0.774,0.813-1.022,1.86-0.636,2.503c-1.699,5.096,3.184,7.729,3.184,7.729
		C163.713,157.043,164.34,154.089,164.825,152.899"/>
	<path fill="#005295" d="M236.742,145.447c-0.007-0.052-0.016-0.103-0.026-0.154c-0.004-0.019-0.008-0.035-0.014-0.057
		c-0.076-0.369-0.171-0.745-0.288-1.129c0,0-0.296-0.162-0.783-0.363c0.251,0.926,0.342,2.078,0.342,3.229
		c0,1.071-0.129,2.082-0.353,2.961c-0.489,2.164-1.641,3.685-2.986,3.685c-0.125,0-0.248-0.017-0.368-0.041
		c-0.37,0.446-0.625,0.677-0.625,0.677c0.093-0.272,0.168-0.537,0.244-0.803c-1.426-0.628-2.486-2.999-2.486-5.835
		c0-1.637,0.354-3.12,0.927-4.202c0.157-0.043,0.318-0.07,0.479-0.098c0.023-0.064,0.044-0.134,0.065-0.201
		c-0.831,0.176-1.644,0.546-2.348,1.254c-0.275,0.986-0.435,2.084-0.435,3.247c0,4.17,1.98,7.549,4.421,7.549
		c0.746,0,1.6-0.418,2.216-0.978c0.862-0.964,1.443-2.133,1.863-3.651c0.221-0.897,0.344-1.884,0.344-2.92
		C236.932,146.862,236.864,146.134,236.742,145.447"/>
	<path fill="#FFFFFF" d="M230.947,152.76c0,0-1.442-1.951-1.522-4.861c0.421-0.218,0.846-0.885,1.059-1.736
		c0.278-1.122,0.079-2.144-0.447-2.272c-0.526-0.132-1.18,0.675-1.461,1.8c-0.25,1.009-0.112,1.928,0.3,2.2
		C228.913,149.245,229.254,151.449,230.947,152.76"/>
	<path fill="#AAB9D8" d="M229.074,143.902c-0.158,0.111-0.308,0.242-0.454,0.384C228.769,144.145,228.918,144.016,229.074,143.902"
		/>
	<path fill="#AAB9D8" d="M228.174,149.109c-0.057-0.483-0.087-0.982-0.087-1.493c0-1.154,0.158-2.242,0.43-3.224
		c-0.697,0.731-1.229,1.824-1.449,3.445c-0.366,2.683,0.222,4.803,1.019,6.234C227.505,152.478,227.805,150.44,228.174,149.109"/>
	<path fill="#B7B9BC" d="M176.771,217.458c-0.062,0.048,0.148,0.044,0.228,0.048c8.839,0.404,16.123,5.707,24.756,5.707
		c13.211,0,24.984-13.211,24.984-13.211c-7.377,1.64-15,9.805-23.367,10.203C192.042,220.742,182.598,212.921,176.771,217.458"/>
	<path fill="#B7B9BC" d="M155.71,200.32c2.093,12.948,13.804,15.569,13.804,15.569s-11.165-5.273-6.064-12.063
		c0,0-10.197-3.01-3.038-11.789c0,0-5.818-10.656,17.309-17.321c-6.814,0.956-12.769,3.241-12.769,3.241
		S152.851,182.638,155.71,200.32"/>
	<path fill="#005295" d="M155.745,208.453c0,0-32.875,9.311-56.525,27.266c23.961-17.54,56.993-26.273,56.993-26.273
		L155.745,208.453z"/>
	<path fill="#005295" d="M152.409,198.457c0,0-46.679-1.826-76.817,12.086c26.961-12.445,76.95-11.001,76.95-11.001L152.409,198.457
		z"/>
	<path fill="#005295" d="M151.949,188.099c0,0-39-9.97-71.69-3.455c29.124-5.804,71.612,4.546,71.612,4.546L151.949,188.099z"/>
	<path fill="#005295" d="M157.252,179.509c0,0-14.303-6.296-50.132-12.668c29.237,5.199,49.898,13.734,49.898,13.734
		L157.252,179.509z"/>
	<path fill="#DEB408" d="M240.639,152.454c-1.376,3.395-3.329,5.186-4.645,6.062c0.811,0.953,2.739,2.581,4.773,4.87
		c-0.02-0.049-0.032-0.082-0.032-0.082C242.513,157.65,241.599,154.693,240.639,152.454"/>
	<path fill="#EED489" d="M240.638,152.456c-0.163,0.402-0.332,0.782-0.511,1.14c0.739,2.62-0.083,5.519-1.875,7.146
		c0.878,0.847,1.418,1.41,2.517,2.646c-0.021-0.054-0.032-0.084-0.032-0.084C242.513,157.652,241.597,154.695,240.638,152.456"/>
	<path fill="#DEB408" d="M245.54,175.894c0.656-1.899,1.374-3.409,2.074-4.442c-0.868-0.538-1.638-1.138-2.325-1.761l0.022,0.036
		c-0.047-0.049-0.099-0.097-0.147-0.144c-0.104-0.098-0.201-0.196-0.302-0.291c-4.223-4.007-11.986-8.675-11.986-8.675
		c-2.117-0.847-3.761-1.818-5.046-2.84c-9.489-4.821-9.492-10.934-9.492-10.934c0.513,1.05,1.149,1.964,1.843,2.759
		c2.194,0.953,3.794-2.493,5.394-9.278c1.598-6.772,7.525-19.346,11.431-7.474c-2.75-2.575-4.985-1.373-7.083,3.593
		c0.853-0.437,1.771-0.687,2.736-0.687c2.083,0,3.971,1.119,5.384,2.94c-0.388-2.096-0.707-3.65-0.707-3.65
		c0-3.922,0.786-11.77-4.449-15.173c-3.368-2.188-9.708-8.234-13.213-11.664c-6.822-6.261-14.376-8.698-18.758-9.635
		c7.676,3.183,16.282,17.354,16.282,17.354c-7.346-9.453-15.902-16.701-19.996-17.922c2.362-1.118,8.079-1.987,8.079-1.987
		c-13.796-6.464-13.547-15.536-13.547-15.536c-3.854,3.854-4.926,8.711-4.926,8.711c4.145-28.08,28.632-40.933,28.632-40.933
		c13.274-4.688,22.397-11.679,22.397-11.679c-9.087,3.029-11.771,3.809-20.299,5.819c-12.83,7.919-29.019,18.723-39.317,43.988
		c-23.4-7.152-36.296-4.903-45.251-3.062c0,10.796-4.357,17.224-4.357,17.224c-3.124-12.61-8.824-23.564-8.824-23.564
		s-11.822-21.972-25.053-27.229c-1.312-0.521-2.749-1.126-4.239-1.758c19.655,15.523,21.835,42.456,21.835,42.456
		c-28.884,7.086-23.632,20.681-23.632,20.681l-3.419,5.626c-20.184,6.02-25.411,24.097-25.411,24.097
		c-3.545-14.612,0.56-29.596,0.56-29.596c-3.265-6.549-4.482-12.765-4.937-16.373c-7.627,9.293-12.269,22.273-17.432,32.042
		c-1.251,4.655-1.256,6.751-1.256,6.751c4.129,0.772,8.178-3.876,8.178-3.876c-0.689,5.508-4.049,6.542-4.049,6.542
		c-13.482,5.195-20.442,15.844-20.808,16.415c-8.521,15.654-15.748,38.33-8.041,57.105c0,0-0.523-8.896,3.401-12.817
		c0,0-3.46,22.178,18.697,50.249c-3.897-11.981-10.031-38.057,0.547-61.16c12.876-28.117,25.492-25.544,25.492-25.544
		c-4.051,8.104-7.863,25.367-7.863,32.345c0,3.042,0.266,5.886,0.667,8.495c4.071-15.002,10.654-24.893,16.674-30.164
		c14.307-12.538,27.141-11.334,27.498-11.459c0,0-3.042,3.575-4.004,6.071c16.219-8.907,31.812-8.611,44.533-5.463
		c13.503,3.348,23.838,9.885,27.943,12.769c4.493-1.463,14.769-3.878,23.144-2.648c4.479,0.655,8.255,1.791,11.45,3.174
		c-2.351-3.158-3.277-6.193-3.407-8.475c0,0,0.399,0.112,1.058,0.374c1.22,0.336,2.487,0.76,3.765,1.278
		c1.333-1.908,6.726-8.681,17.689-7.906c0,0-1.456,0.608-2.552,1.443c2.956-0.193,6.643,0.151,9.931,2.184
		c0,0-9.756-1.625-15.759,2.627c0,0,0.384-1.448,1.722-3.006c-3.181,0.946-5.921,3.498-7.679,6.239
		c4.312,2.357,8.283,5.891,10.21,10.9c0.01,0.027-0.252,0.304-0.625,0.625c-3.378-5.627-7.755-7.628-10.847-8.316
		c0.106,0.882,1.842,3.857,4.132,6.434c3.391,2.527,5.675,5.115,7.294,6.918c1.556-2.128,5.954-5.742,16.865-2.33
		c4.394,1.375,8.879-0.392,11.991-1.181c0.014-0.067,0.029-0.126,0.042-0.194c0.475-5.238-10.553-15.674-10.553-15.674
		C240.456,169.156,243.942,173.375,245.54,175.894 M99.441,154.388c0,0,0.843-2.943,4.431-5.025c0,0-11.259-1.769-27.365,11.22
		c0,0,13.7-22.831,34.144-13.207c0,0,9.936-2.504,16.238,6.931C126.889,154.306,115.125,147.826,99.441,154.388 M204.778,120.394
		c-11.668-15.011-25.259-26.525-31.759-28.465C186.175,89.738,204.778,120.394,204.778,120.394 M184.196,124.265
		c-15.906-20.463-25.39-27.114-34.25-29.756C167.881,91.52,184.196,124.265,184.196,124.265 M162.076,116.214
		c15.175,2.265,18.489,21.623,18.489,21.623c-9.42,1.222-16.047-9.94-16.047-9.94c4.05,2.467,7.423,2.194,7.423,2.194
		C170.72,124.511,162.076,116.214,162.076,116.214 M181.109,160.636c0,0,3.966,2.968,5.351,6.484c0,0-4.706-2.928-8.938-1.688
		c0,0-13.762,7.106-26.216-7.938c0,0-0.02-0.031-0.066-0.087c-3.245-0.91-10.823-2.644-20.577-2.339
		c0.172-0.141,0.343-0.255,0.514-0.386c-0.063,0.004-0.101,0.007-0.101,0.007c0.033-0.003,0.066-0.005,0.102-0.007
		c5.66-4.273,11.222-1.707,16.783-4.371c3.925-1.883,10.94-8.298,18.261-8.005c-1.987-2.099-10.231-6.528-21.387-2.002
		c0,0,14.774-15.833,32.41,3.691c0.544,0.54,1.055,1.126,1.522,1.762c0,0.001,0,0.001,0.001,0.002
		c0.269,0.367,0.529,0.743,0.767,1.144c3.301,5.537,4.183,7.978,5.231,9.025c0,0,4.081,5.406,10.595,8.763
		C195.361,164.692,192.627,165.868,181.109,160.636 M204.787,159.193c0,0,2.128-2.764,1.13-3.763c0,0-5.623,4.084-13.107,1.215
		c0,0,14.171-1.688,14.883-9.327c0,0,1.46,2.216,1.46,4.459c0,0,5.24-5.49,2.62-19.086
		C211.774,132.691,221.631,153.61,204.787,159.193 M224.75,123.749c0,0,0.13-2.403-1.421-5.179c0,0,4.694,3.594,5.368,12.142
		c0,0-7.89-3.03-10.614-16.808C218.082,113.904,222.441,122.633,224.75,123.749"/>
	<path fill="#F0D792" d="M217.012,42.745c0,0-26.979,12.737-39.083,43.728c0,0-23.864-8.727-44.986-3.043
		c0,0,0.177,10.978-4.332,17.123c-3.124-12.61-8.824-23.564-8.824-23.564s-11.822-21.972-25.053-27.229
		c-1.312-0.521-2.749-1.126-4.239-1.758l1.675,1.378c8.855,4.744,25.219,17.812,33.794,51.812l-3.993,3.306l8.227-1.983
		c0,0,6.785-7.6,6.644-16.461c0,0,18.862-4.228,41.214,3.401l1.566,0.403c0,0,8.529-30.933,36.53-44.497
		c0,0,14.675-4.399,20.302-8.13C233.878,38.157,224.567,41.421,217.012,42.745"/>
	<path fill="#EED489" d="M215.118,179.262c8.792-6.836,18.585,2.882,26.832-1.02c0,0-1.507-4.667-8.408-12.584
		c0,0,4.83,7.014,6.374,11.872l0.49-0.796C236.302,180.16,220.382,169.889,215.118,179.262"/>
	<path fill="#F0D792" d="M199.153,121.826c2.232,6.046,1.721,10.145,1.721,10.145c-4.21-15.335-16.083-25.039-16.083-25.039
		c10.788,11.954,15.68,23.911,15.975,34.583C206.167,130.604,199.153,121.826,199.153,121.826"/>
	<path fill="#F0D792" d="M181.179,144.664c0,0,3.287,5.452,11.206,6.981c9.9,1.913,15.556-6.533,15.818-12.944
		c0,0,1.151,3.069,0.67,6.81c0,0,3.654-7.187-3.546-18.503c0,0,2.432,10.761,0.862,13.9c0,0,0.094-3.356-1.246-6.136
		c0,0,1.872,15.433-11.338,15.123C184.972,149.694,181.179,144.664,181.179,144.664"/>
	<path fill="#AD8505" d="M244.092,181.519c-2.936,0.832-7.603,2.558-12.036,1.188c-10.919-3.381-15.306,0.203-16.864,2.33
		c-2.108-2.347-5.343-6.03-10.691-9.171c-2.226-3.76-0.835-4.157-0.835-4.157c4.872-0.018,11.451,7.555,11.451,7.555
		c8.791-6.838,18.584,2.882,26.831-1.021c0,0-1.507-4.666-8.409-12.584C233.539,165.658,244.847,176.134,244.092,181.519"/>
	<path fill="#AD8505" d="M27.432,178.825c-10.465,10.466-11.947,18.229-11.947,18.229s-3.541,22.68,19.454,51.199
		C11.28,200.833,27.432,178.825,27.432,178.825"/>
	<path fill="#AD8505" d="M55.488,94.885c0,0,0-0.002-0.001-0.002c-2.387,0.556-7.36,10.126-13.707,21.246
		c-0.793,2.314-1.635,4.601-2.517,6.781h0.001c-2.461,7.501-2.461,10.774-2.461,10.774c4.129,0.774,8.178-3.875,8.178-3.875
		c-0.689,5.507-4.049,6.541-4.049,6.541c-13.728,5.287-20.691,16.23-20.82,16.434c-8.517,15.653-15.731,38.321-8.029,57.087
		c0,0-0.025-0.425-0.022-1.129c-0.81-33.238,13.438-56.857,27.58-64.099c14.301-7.327,10.462-24.419,10.462-24.419
		c-3.313,3.316-4.533,4.536-4.533,4.536c0.237-3.498,7.386-16.717,12.461-19.17v-0.001C56.508,101.255,55.808,97.423,55.488,94.885"
		/>
	<path fill="#AD8505" d="M184.196,124.265c0,0-1.852-9.567-12.631-21.827c-10.781-12.26-21.619-7.929-21.619-7.929
		C167.881,91.52,184.196,124.265,184.196,124.265"/>
	<path fill="#AD8505" d="M204.778,120.394c0,0-6.06-13.653-15.899-22.646c-8.84-8.079-15.86-5.818-15.86-5.818
		C186.175,89.738,204.778,120.394,204.778,120.394"/>
	<path fill="#AD8505" d="M217.196,115.93c0,0-3.815-8.596-10.011-14.262c-5.565-5.083-9.984-3.66-9.984-3.66
		C205.484,96.629,217.196,115.93,217.196,115.93"/>
	<path fill="#AD8505" d="M106.735,132.803c0.04-0.027,0.082-0.048,0.122-0.076c-5.184,0.904-9.248,3.766-11.576,5.494
		c4.954-2.088,12.918-2.743,23.935,4.537c0,0-0.146-3.334-3.32-5.699c0,0,1.602-0.035,3.674,1.207
		C115.01,131.75,106.735,132.803,106.735,132.803"/>
	<path fill="#AD8505" d="M211.774,132.691c-1.99-7.921-5.469-11.749-5.469-11.749c2.096,3.727,3.077,10.531,3.077,10.531
		c-1.258-2.421-4.057-4.466-4.057-4.466c7.2,11.316,3.546,18.503,3.546,18.503c0.479-3.74-0.671-6.81-0.671-6.81
		c-0.261,6.411-5.916,14.857-15.817,12.944c-7.919-1.529-11.206-6.981-11.206-6.981s3.793,5.03,12.427,5.231
		c13.209,0.31,11.337-15.123,11.337-15.123s-1.33,11.388-7.977,11.968c-10.514,0.922-12.639-7.229-12.639-7.229l-1.604,1.938
		l0.852,1.434c-0.963-1.153-1.722-2.266-2.272-3.16c-0.347-1.061-0.739-1.887-0.739-1.887c-9.418,1.222-16.047-9.94-16.047-9.94
		c2.466,1.499,4.673,1.982,6.028,2.137c-2.582-2.644-4.839-5.223-8.39-6.153c0,0,0.444,1.061,0.38,2.148
		c0,0-0.583-0.758-1.539-1.775c-2.663-7.764-10.528-9.274-10.528-9.274c1.652,1.731,1.34,3.368,1.34,3.368
		c-5.625-4.902-12.19-4.048-12.19-4.048s5.444,1.246,9.654,5.336c-1.587-0.342-3.485-0.494-5.613-0.213
		c-7.588-7.587-16.774-4.516-16.774-4.516s4.199,0.653,8.032,4.04c-0.861,0.124-1.756,0.331-2.664,0.616
		c-0.353-0.052-0.706-0.091-1.053-0.106c0,0,0.965,1.294,1.109,2.645c0,0-0.838-0.333-2.252-0.595
		c-9.83-9.243-20.906-4.158-20.906-4.158s7.356-1.214,13.501,4.267c-1.234,0.262-2.533,0.663-3.872,1.262
		c0,0-6.719-0.538-12.77,3.547c3.144-0.758,10.33-1.297,16.306,2.648c-7.466-1.743-13.072,2.305-13.072,2.305
		s1.024-0.152,2.62-0.058c6.837-0.164,15.145,4.639,15.145,4.639c-0.795-0.856-0.809-2.826-0.809-2.826
		c3.944,3.83,9.825,3.386,9.825,3.386c-2.3-0.642-3.104-2.482-3.104-2.482c7.775,1.698,12.11-0.399,14.442-2.651
		c-1.553,2.459-4.032,5.047-7.697,5.402c0,0-4.529,6.531-11.149,1.243c0,0,0.746,4.294,9.402,4.719c0,0-7.146,3.621-14.359-1.785
		c-0.236-0.019-0.615-0.073-1.022-0.139c0.292,0.342,0.586,0.714,0.875,1.122c0.162,0.597,0.295,1.168,0.397,1.699
		c-2.204,0.006-4.46,0.263-6.464,0.969c0,0-10.309-9.163-21.624-3.578c0,0,4.427-0.558,6.731,0.712c0,0-15.177-0.738-25.947,18.835
		c0,0,13.699-22.831,34.144-13.207c0,0,9.935-2.504,16.238,6.931c0,0-0.106-0.057-0.308-0.155c0.409,0.309,0.81,0.641,1.202,1
		c0.982-0.082,1.982-0.151,3.009-0.199c0.008-0.017,0.028-0.034,0.042-0.05c0.014-0.023,0.028-0.048,0.054-0.07
		c0.046-0.046,0.105-0.094,0.188-0.141c0,0,0.039-0.003,0.102-0.007c5.66-4.273,11.223-1.707,16.784-4.371
		c3.189-1.529,8.418-6.052,14.194-7.536c1.332-0.343,2.694-0.524,4.067-0.469c-1.987-2.099-10.231-6.528-21.387-2.002
		c0,0,14.774-15.833,32.41,3.691c0.544,0.54,1.055,1.126,1.522,1.762c0,0.001,0.001,0.001,0.001,0.001
		c0.269,0.368,0.528,0.744,0.767,1.145c3.301,5.537,4.183,7.978,5.231,9.025c0,0,2.658,3.519,7.106,6.642
		c1.095,0.751,2.28,1.482,3.541,2.137c0.177,0.05,0.8,0.24,1.586,0.58c0.165,0.05,0.479,0.156,0.911,0.329
		c1.22,0.336,2.487,0.76,3.765,1.278c0.001-0.001,0.002-0.002,0.003-0.003v-0.003c-0.756-1.73,1.129-3.814,1.129-3.814
		c-1.77,0-2.237,0.326-2.237,0.326c0-1.771,2.982-2.471,2.982-2.471c-1.208-0.381-2.175-0.563-2.946-0.625
		c1.322-0.694,1.945-1.54,1.945-1.54c-6.688,1.048-9.745-2.12-9.745-2.12s14.171-1.688,14.883-9.327c0,0,1.459,2.216,1.459,4.459
		C209.152,151.777,214.394,146.287,211.774,132.691 M161.107,141.182l-0.016,0.003c0.083,0.028,0.131,0.047,0.131,0.047
		c-8.639,0.804-12.272,6.95-12.272,6.95c0.068-0.184,0.137-0.344,0.204-0.519c-0.208,0.289-0.319,0.472-0.319,0.472
		c1.073-2.851,2.045-4.501,2.82-5.468c-3.47,0.568-6.768,1.468-9.017,2.007c0.068-0.043,0.135-0.083,0.203-0.126
		c-0.103,0.024-0.22,0.055-0.317,0.079C152.911,137.89,161.107,141.182,161.107,141.182"/>
	<path fill="#F0D792" d="M215.96,120.99c2.683,5.857,2.483,9.984,2.483,9.984c-5.363-14.974-17.937-23.746-17.937-23.746
		c11.663,11.097,17.452,22.648,18.556,33.267C223.619,129.209,215.96,120.99,215.96,120.99"/>
	<path fill="#F3DEA9" d="M218.568,146.549v0.003c-0.035,0.115-2.108,7.193,11.66,13.892c6.191,3.012,13.768,9.789,16.214,13.387
		c0.459-1.077,0.704-1.692,1.172-2.379c-0.551-0.589-1.189-1.221-1.874-1.872c-3.962-3.763-9.795-8.242-13.76-10.008
		c-1.195-0.532-2.275-1.07-3.268-1.609c-1.114-0.605-2.109-1.212-2.994-1.812c-3.645-2.479-5.431-4.852-6.309-6.617
		c-0.809-1.63-0.843-2.742-0.842-2.947C218.569,146.564,218.569,146.552,218.568,146.549l0.001-0.002L218.568,146.549z"/>
	<polygon fill="#231F20" points="251.213,225.734 251.213,226.555 249.826,226.555 249.826,230.366 248.85,230.366 248.85,226.555 
		247.461,226.555 247.461,225.734 	"/>
	<path fill="#231F20" d="M254.841,225.734h1.39v4.632h-0.899v-3.135c0-0.089,0-0.214,0.004-0.374
		c0.002-0.165,0.002-0.29,0.002-0.379l-0.877,3.888h-0.939l-0.871-3.888c0,0.089,0,0.214,0.003,0.379
		c0.002,0.16,0.002,0.285,0.002,0.374v3.135h-0.899v-4.632h1.405l0.843,3.643L254.841,225.734z"/>
</g>
</svg>
